/vscmnt/brussel_pixiu_data/_data_brussel/112/vsc11236/PredSimResults/SUBJ04mtu3D/worker10.mot
version=1
nRows=4
nColumns=50
inDegrees=yes
endheader
                time	         pelvis_tilt	         pelvis_list	     pelvis_rotation	           pelvis_tx	           pelvis_ty	           pelvis_tz	       hip_flexion_r	     hip_adduction_r	      hip_rotation_r	        knee_angle_r	       ankle_angle_r	         mtp_angle_r	       hip_flexion_l	     hip_adduction_l	      hip_rotation_l	        knee_angle_l	       ankle_angle_l	         mtp_angle_l	    lumbar_extension	      lumbar_bending	     lumbar_rotation	 ercspn_r/activation	 intobl_r/activation	 extobl_r/activation	    abd_r/activation	    add_r/activation	hamstrings_r/activation	bifemsh_r/activation	glut_max_r/activation	iliopsoas_r/activation	rect_fem_r/activation	  vasti_r/activation	gastroc_r/activation	 soleus_r/activation	tib_ant_r/activation	 ercspn_l/activation	 intobl_l/activation	 extobl_l/activation	    abd_l/activation	    add_l/activation	hamstrings_l/activation	bifemsh_l/activation	glut_max_l/activation	iliopsoas_l/activation	rect_fem_l/activation	  vasti_l/activation	gastroc_l/activation	 soleus_l/activation	tib_ant_l/activation	
          0.00000000	         -2.57945222	          0.39683473	          7.92359024	          0.00000000	          0.88033872	         -0.01054425	         29.66592227	         -3.35868410	        -10.74237474	        -11.73464619	          4.03902910	          0.23698171	        -12.17004828	         -0.53745445	         -9.05353706	         -8.57287798	         12.72737583	         21.64463447	        -13.82142170	         -3.19567738	         -7.11557014	          0.03230162	          0.21813201	          0.02253772	          0.01074897	          0.30153983	          0.06400814	          0.04030091	          0.03144833	          0.15539478	          0.03021949	          0.02814744	          0.00999999	          0.01295059	          0.33793250	          0.03642800	          0.00999999	          0.00999999	          0.05283015	          0.00999999	          0.02570081	          0.18308481	          0.01589756	          0.01000005	          0.00999999	          0.00999999	          0.25111457	          0.23860500	          0.00999999	
          0.01303953	         -2.65733150	          0.38906740	          7.70648015	          0.01570898	          0.87816706	         -0.01016039	         29.48913027	         -3.26188903	        -10.85253119	        -13.08555289	          3.82097767	          0.22462741	        -12.87475575	         -0.66049282	         -9.69973659	         -9.10998416	         12.34882780	         23.07678552	        -13.33510833	         -2.58824747	         -7.17500697	          0.02653491	          0.22047978	          0.01851413	          0.02931559	          0.24770680	          0.06166004	          0.03310611	          0.04191674	          0.12765261	          0.02482450	          0.02312237	          0.01217324	          0.01217325	          0.36514724	          0.03195064	          0.00999999	          0.00999999	          0.04339853	          0.00999999	          0.02111253	          0.15039922	          0.01305941	          0.01000004	          0.00999999	          0.00999999	          0.21069481	          0.22874489	          0.00999999	
          0.02607907	         -2.72029134	          0.32918181	          7.43799264	          0.03169751	          0.87624736	         -0.00968488	         29.25696933	         -3.13767495	        -10.99255235	        -14.32228645	          3.38140751	          0.21656013	        -13.48460009	         -0.85304407	        -10.38136088	         -9.87482844	         11.88077336	         24.53285283	        -12.82893044	         -1.90388041	         -7.20293199	          0.02469809	          0.18111817	          0.01520885	          0.04858893	          0.23494392	          0.06398314	          0.02719577	          0.03443347	          0.10486316	          0.02039265	          0.08644772	          0.00999999	          0.00999999	          0.39589652	          0.04072016	          0.00999999	          0.00999999	          0.03565072	          0.00999999	          0.01734337	          0.12354888	          0.01072796	          0.01481895	          0.00999999	          0.00999999	          0.17308008	          0.21326805	          0.00999999	
          0.03911860	         -2.76914979	          0.23094156	          7.12025747	          0.04782630	          0.87475812	         -0.00909602	         28.97808817	         -2.98291319	        -11.23065627	        -15.48829259	          2.95330042	          0.19349776	        -13.93759355	         -1.11257408	        -11.09595710	        -10.95565574	         11.27258964	         26.02453331	        -12.32424590	         -1.16385621	         -7.19761997	          0.03029075	          0.14878367	          0.01249366	          0.07255759	          0.21367709	          0.06570749	          0.02234059	          0.02828616	          0.08614225	          0.01675201	          0.15503324	          0.00999999	          0.00999999	          0.41967751	          0.05462230	          0.00999999	          0.00999999	          0.02928610	          0.00999999	          0.01424711	          0.10149206	          0.00999999	          0.01217337	          0.00999999	          0.00999999	          0.14218060	          0.18717031	          0.00999999	
